# Blender 4.1.1
# www.blender.org
mtllib missile.mtl
o Cube
v -0.800000 0.800000 0.800000
v -0.800000 -0.800000 0.800000
v -0.800000 0.800000 -0.800000
v -0.800000 -0.800000 -0.800000
v 0.800000 0.800000 0.800000
v 0.800000 -0.800000 0.800000
v 0.800000 0.800000 -0.800000
v 0.800000 -0.800000 -0.800000
v 0.200000 0.690098 -0.200000
v 0.200000 1.490098 -0.200000
v 0.200000 0.690098 0.200000
v 0.200000 1.490098 0.200000
v -0.200000 0.690098 -0.200000
v -0.200000 1.490098 -0.200000
v -0.200000 0.690098 0.200000
v -0.200000 1.490098 0.200000
v 0.200000 1.090098 -0.200000
v 0.200000 1.090098 0.200000
v -0.200000 1.090098 0.200000
v -0.200000 1.090098 -0.200000
v 0.200000 1.678775 -0.200000
v 0.200000 1.678775 0.200000
v -0.200000 1.678775 0.200000
v -0.200000 1.678775 -0.200000
v -0.828087 1.490098 0.200000
v -0.828087 1.490098 -0.200000
v -0.828087 1.090098 0.200000
v -0.828087 1.090098 -0.200000
vn -0.0000 1.0000 -0.0000
vn -0.0000 -0.0000 -1.0000
vn 1.0000 -0.0000 -0.0000
vn -0.0000 -1.0000 -0.0000
vn -1.0000 -0.0000 -0.0000
vn -0.0000 -0.0000 1.0000
vt 0.875000 0.500000
vt 0.625000 0.750000
vt 0.625000 0.500000
vt 0.375000 1.000000
vt 0.375000 0.750000
vt 0.625000 0.000000
vt 0.375000 0.250000
vt 0.375000 0.000000
vt 0.375000 0.500000
vt 0.125000 0.750000
vt 0.125000 0.500000
vt 0.625000 0.250000
vt 0.000000 0.000000
vt 0.875000 0.750000
vt 0.625000 1.000000
s 0
usemtl Material
f 5/1/1 3/2/1 1/3/1
f 3/2/2 8/4/2 4/5/2
f 7/6/3 6/7/3 8/8/3
f 2/9/4 8/10/4 6/11/4
f 1/3/5 4/5/5 2/9/5
f 5/12/6 2/9/6 6/7/6
f 10/13/3 18/13/3 17/13/3
f 12/13/6 19/13/6 18/13/6
f 16/13/6 27/13/6 19/13/6
f 14/13/2 17/13/2 20/13/2
f 15/13/4 9/13/4 11/13/4
f 12/13/6 23/13/6 16/13/6
f 20/13/2 9/13/2 13/13/2
f 19/13/5 13/13/5 15/13/5
f 18/13/6 15/13/6 11/13/6
f 17/13/3 11/13/3 9/13/3
f 22/13/1 24/13/1 23/13/1
f 16/13/5 24/13/5 14/13/5
f 10/13/3 22/13/3 12/13/3
f 14/13/2 21/13/2 10/13/2
f 25/13/5 28/13/5 27/13/5
f 14/13/1 25/13/1 16/13/1
f 19/13/4 28/13/4 20/13/4
f 20/13/2 26/13/2 14/13/2
f 5/1/1 7/14/1 3/2/1
f 3/2/2 7/15/2 8/4/2
f 7/6/3 5/12/3 6/7/3
f 2/9/4 4/5/4 8/10/4
f 1/3/5 3/2/5 4/5/5
f 5/12/6 1/3/6 2/9/6
f 10/13/3 12/13/3 18/13/3
f 12/13/6 16/13/6 19/13/6
f 16/13/6 25/13/6 27/13/6
f 14/13/2 10/13/2 17/13/2
f 15/13/4 13/13/4 9/13/4
f 12/13/6 22/13/6 23/13/6
f 20/13/2 17/13/2 9/13/2
f 19/13/5 20/13/5 13/13/5
f 18/13/6 19/13/6 15/13/6
f 17/13/3 18/13/3 11/13/3
f 22/13/1 21/13/1 24/13/1
f 16/13/5 23/13/5 24/13/5
f 10/13/3 21/13/3 22/13/3
f 14/13/2 24/13/2 21/13/2
f 25/13/5 26/13/5 28/13/5
f 14/13/1 26/13/1 25/13/1
f 19/13/4 27/13/4 28/13/4
f 20/13/2 28/13/2 26/13/2
