# Blender 4.1.1
# www.blender.org
mtllib player.mtl
o 立方体
v 0.804525 -1.000000 -0.905830
v 0.804525 -1.000000 0.905830
v -0.804525 -1.000000 -0.905830
v 0.804525 0.000000 0.000000
v -0.804525 -1.000000 0.905830
v -0.804525 0.000000 0.000000
v 0.804525 0.000000 -0.905830
v 0.804525 0.000000 0.905830
v -0.804525 0.000000 0.905830
v -0.804525 0.000000 -0.905830
v 0.804525 0.433075 -0.905830
v 0.804525 0.433075 0.905830
v -0.804525 0.433075 0.905830
v -0.804525 0.433075 -0.905830
v 0.804525 -0.500000 0.905830
v -0.804525 -0.500000 0.905830
v -0.804525 -0.500000 -0.905830
v 0.804525 -0.500000 -0.905830
v 0.000000 0.000000 -0.905830
v 0.000000 0.000000 0.905830
v 0.000000 0.433075 -0.905830
v 0.000000 0.433075 0.905830
v 0.000000 -0.500000 0.905830
v 0.000000 -0.500000 -0.905830
v -0.402263 -1.000000 -0.905830
v -0.402263 0.000000 0.905830
v -0.402263 0.433075 0.905830
v -0.402263 -0.500000 0.905830
v -0.402263 -1.000000 0.905830
v -0.402263 0.000000 -0.905830
v -0.402263 0.433075 -0.905830
v -0.402263 -0.500000 -0.905830
v 0.402263 -1.000000 0.905830
v 0.402263 0.000000 -0.905830
v 0.402263 0.433075 -0.905830
v 0.402263 -0.500000 -0.905830
v 0.402263 -1.000000 -0.905830
v 0.402263 0.000000 0.905830
v 0.402263 0.433075 0.905830
v 0.402263 -0.500000 0.905830
v -0.804525 0.433075 0.000000
v 0.804525 0.433075 0.000000
v 0.804525 -0.500000 0.000000
v -0.804525 -0.500000 0.000000
v 0.000000 0.765692 0.000000
v 0.000000 -0.594408 0.000000
v -0.402263 0.765692 0.000000
v -0.402263 -0.594408 0.000000
v 0.402263 -0.594408 0.000000
v 0.402263 0.765692 0.000000
v -0.804525 0.000000 0.452915
v -0.804525 -1.000000 0.452915
v 0.804525 0.000000 0.452915
v 0.804525 -1.000000 0.452915
v -0.804525 0.433075 0.452915
v 0.804525 0.433075 0.452915
v 0.804525 -0.500000 0.452915
v -0.804525 -0.500000 0.452915
v 0.000000 0.765692 0.452915
v 0.000000 -0.594408 0.452915
v -0.402263 0.765692 0.452915
v -0.402263 -0.594408 0.452915
v 0.402263 -0.594408 0.452915
v 0.402263 0.765692 0.452915
v 0.804525 -1.000000 -0.452915
v -0.804525 -1.000000 -0.452915
v 0.804525 0.000000 -0.452915
v 0.804525 0.433075 -0.452915
v -0.804525 0.000000 -0.452915
v -0.804525 0.433075 -0.452915
v -0.804525 -0.500000 -0.452915
v 0.000000 0.765692 -0.452915
v 0.000000 -0.594408 -0.452915
v -0.402263 0.765692 -0.452915
v -0.402263 -0.594408 -0.452915
v 0.402263 -0.594408 -0.452915
v 0.402263 0.765692 -0.452915
v 0.804525 -0.500000 -0.452915
v 0.402263 0.192149 2.491653
v 0.000000 0.192149 2.491653
v 0.402263 0.692149 2.491653
v 0.000000 0.692149 2.491653
v -0.402263 0.192149 2.491653
v -0.402263 0.692149 2.491653
vn -0.6372 0.7707 -0.0000
vn -0.0000 0.8060 0.5919
vn -0.0000 0.8060 -0.5919
vn 0.6006 -0.5956 0.5334
vn -0.0000 1.0000 -0.0000
vn -0.0000 -0.0000 -1.0000
vn -1.0000 -0.0000 -0.0000
vn -0.0000 -0.0000 1.0000
vn 1.0000 -0.0000 -0.0000
vn -0.1556 -0.6632 0.7321
vn -0.5546 0.6707 -0.4926
vn -0.7726 -0.6216 -0.1296
vn -0.7477 -0.0000 0.6641
vn -0.0000 -0.9927 0.1203
vn 0.5546 0.6707 -0.4926
vn -0.0000 -1.0000 -0.0000
vn 0.6372 0.7707 -0.0000
vn 0.6006 -0.5956 -0.5334
vn -0.0000 0.9869 -0.1612
vn -0.0000 -0.9790 0.2041
vn 0.1556 -0.6632 0.7321
vn 0.7100 -0.7042 -0.0000
vn -0.1556 -0.6632 -0.7321
vn -0.0000 -0.7450 0.6671
vn 0.7726 -0.6216 -0.1296
vn -0.0000 -0.7450 -0.6671
vn -0.6006 -0.5956 0.5334
vn 0.5546 0.6707 0.4926
vn -0.6006 -0.5956 -0.5334
vn -0.5546 0.6707 0.4926
vn -0.7100 -0.7042 -0.0000
vn 0.1556 -0.6632 -0.7321
vt 0.687500 0.625000
vt 0.562500 0.562500
vt 0.687500 0.562500
vt 0.812500 0.562500
vt 0.562500 0.375000
vt 0.562500 0.312500
vt 0.687500 0.687500
vt 0.562500 0.875000
vt 0.562500 0.812500
vt 0.375000 0.687500
vt 0.312500 0.750000
vt 0.312500 0.687500
vt 0.750000 0.625000
vt 0.750000 0.562500
vt 0.500000 0.937500
vt 0.437500 1.000000
vt 0.437500 0.937500
vt 0.500000 0.687500
vt 0.437500 0.750000
vt 0.437500 0.687500
vt 0.500000 0.437500
vt 0.437500 0.500000
vt 0.437500 0.437500
vt 0.500000 0.187500
vt 0.437500 0.250000
vt 0.437500 0.187500
vt 0.562500 0.937500
vt 0.500000 1.000000
vt 0.562500 0.687500
vt 0.500000 0.750000
vt 0.562500 0.437500
vt 0.500000 0.500000
vt 0.562500 0.187500
vt 0.500000 0.250000
vt 0.375000 0.250000
vt 0.375000 0.187500
vt 0.375000 0.500000
vt 0.375000 0.437500
vt 0.375000 0.750000
vt 0.375000 1.000000
vt 0.375000 0.937500
vt 0.437500 0.625000
vt 0.312500 0.625000
vt 0.500000 0.312500
vt 0.500000 0.875000
vt 0.500000 0.812500
vt 0.437500 0.375000
vt 0.437500 0.312500
vt 0.437500 0.875000
vt 0.437500 0.812500
vt 0.750000 0.687500
vt 0.250000 0.687500
vt 0.187500 0.750000
vt 0.562500 0.750000
vt 0.375000 0.812500
vt 0.250000 0.562500
vt 0.375000 0.312500
vt 0.500000 0.375000
vt 0.562500 0.062500
vt 0.812500 0.687500
vt 0.125000 0.687500
vt 0.125000 0.750000
vt 0.562500 0.250000
vt 0.312500 0.562500
vt 0.250000 0.625000
vt 0.187500 0.625000
vt 0.187500 0.562500
vt 0.500000 0.125000
vt 0.500000 0.062500
vt 0.500000 0.625000
vt 0.500000 0.562500
vt 0.437500 0.125000
vt 0.437500 0.062500
vt 0.437500 0.562500
vt 0.812500 0.625000
vt 0.312500 0.500000
vt 0.375000 0.562500
vt 0.562500 0.500000
vt 0.187500 0.500000
vt 0.125000 0.562500
vt 0.125000 0.500000
vt 0.562500 0.125000
vt 0.500000 0.000000
vt 0.437500 0.000000
vt 0.562500 0.000000
vt 0.375000 0.062500
vt 0.375000 0.000000
vt 0.562500 0.625000
vt 0.187500 0.687500
vt 0.562500 1.000000
s 0
usemtl マテリアル
f 47/1/1 55/2/1 61/3/1
f 64/4/2 22/5/2 39/6/2
f 74/7/3 21/8/3 31/9/3
f 66/10/4 25/11/4 75/12/4
f 64/4/5 45/13/5 59/14/5
f 34/15/6 18/16/6 36/17/6
f 69/18/7 17/19/7 71/20/7
f 26/21/8 16/22/8 28/23/8
f 53/24/9 15/25/9 57/26/9
f 35/27/6 7/28/6 34/15/6
f 70/29/7 10/30/7 69/18/7
f 27/31/8 9/32/8 26/21/8
f 56/33/9 8/34/9 53/24/9
f 57/26/9 2/35/9 54/36/9
f 28/23/8 5/37/8 29/38/8
f 71/20/7 3/39/7 66/10/7
f 36/17/6 1/40/6 37/41/6
f 44/42/10 66/10/10 48/43/10
f 39/6/9 79/44/9 38/44/9
f 31/9/6 19/45/6 30/46/6
f 38/44/8 23/47/8 40/48/8
f 30/46/6 24/49/6 32/50/6
f 31/9/11 70/29/11 74/7/11
f 59/14/2 27/31/2 22/5/2
f 72/51/3 35/27/3 21/8/3
f 73/52/12 24/49/12 37/53/12
f 10/30/6 32/50/6 17/19/6
f 14/54/6 30/46/6 10/30/6
f 17/19/6 25/55/6 3/39/6
f 60/56/13 33/57/13 40/48/13
f 20/58/14 83/21/14 26/21/14
f 20/58/8 28/23/8 23/47/8
f 68/59/15 35/27/15 77/60/15
f 65/61/16 37/53/16 1/62/16
f 8/34/8 40/48/8 15/25/8
f 12/63/8 38/44/8 8/34/8
f 15/25/8 33/57/8 2/35/8
f 21/8/6 34/15/6 19/45/6
f 19/45/6 36/17/6 24/49/6
f 62/64/16 46/65/16 60/56/16
f 60/56/16 49/66/16 63/67/16
f 59/14/5 47/1/5 61/3/5
f 68/59/9 4/68/9 67/69/9
f 55/2/7 6/70/7 51/71/7
f 67/69/9 43/72/9 78/73/9
f 51/71/7 44/42/7 58/74/7
f 56/33/17 50/75/17 64/4/17
f 29/76/18 52/77/18 62/64/18
f 9/32/7 58/74/7 16/22/7
f 13/78/7 51/71/7 9/32/7
f 16/22/7 52/77/7 5/37/7
f 56/33/5 39/6/5 12/63/5
f 33/79/16 54/80/16 2/81/16
f 42/82/9 53/24/9 4/68/9
f 4/68/9 57/26/9 43/72/9
f 7/83/9 78/73/9 18/84/9
f 11/85/9 67/69/9 7/83/9
f 18/84/9 65/86/9 1/87/9
f 74/7/1 41/88/1 47/1/1
f 50/75/5 72/51/5 45/13/5
f 48/43/16 73/52/16 46/65/16
f 46/65/16 76/89/16 49/66/16
f 45/13/5 74/7/5 47/1/5
f 41/88/7 69/18/7 6/70/7
f 6/70/7 71/20/7 44/42/7
f 42/82/17 77/60/17 50/75/17
f 27/31/5 55/2/5 13/78/5
f 81/6/8 80/58/8 79/44/8
f 82/5/8 83/21/8 80/58/8
f 27/31/7 83/21/7 84/31/7
f 27/31/19 82/5/19 22/5/19
f 22/5/19 81/6/19 39/6/19
f 38/44/14 80/58/14 20/58/14
f 62/64/20 23/47/20 28/23/20
f 43/72/21 49/66/21 65/86/21
f 47/1/1 41/88/1 55/2/1
f 64/4/2 59/14/2 22/5/2
f 74/7/3 72/51/3 21/8/3
f 66/10/16 3/39/16 25/11/16
f 64/4/5 50/75/5 45/13/5
f 34/15/6 7/28/6 18/16/6
f 69/18/7 10/30/7 17/19/7
f 26/21/8 9/32/8 16/22/8
f 53/24/9 8/34/9 15/25/9
f 35/27/6 11/90/6 7/28/6
f 70/29/7 14/54/7 10/30/7
f 27/31/8 13/78/8 9/32/8
f 56/33/9 12/63/9 8/34/9
f 57/26/9 15/25/9 2/35/9
f 28/23/8 16/22/8 5/37/8
f 71/20/7 17/19/7 3/39/7
f 36/17/6 18/16/6 1/40/6
f 48/43/22 62/64/22 52/77/22
f 52/77/7 58/74/7 44/42/7
f 44/42/7 71/20/7 66/10/7
f 66/10/22 75/12/22 48/43/22
f 48/43/23 52/77/23 44/42/23
f 39/6/9 81/6/9 79/44/9
f 31/9/6 21/8/6 19/45/6
f 38/44/8 20/58/8 23/47/8
f 30/46/6 19/45/6 24/49/6
f 31/9/5 14/54/5 70/29/5
f 59/14/2 61/3/2 27/31/2
f 72/51/3 77/60/3 35/27/3
f 73/52/24 75/12/24 25/55/24
f 25/55/6 32/50/6 24/49/6
f 24/49/6 36/17/6 37/53/6
f 37/53/24 76/89/24 73/52/24
f 73/52/25 25/55/25 24/49/25
f 10/30/6 30/46/6 32/50/6
f 14/54/6 31/9/6 30/46/6
f 17/19/6 32/50/6 25/55/6
f 40/48/20 23/47/20 60/56/20
f 60/56/26 63/67/26 33/57/26
f 20/58/14 80/58/14 83/21/14
f 20/58/8 26/21/8 28/23/8
f 68/59/5 11/90/5 35/27/5
f 65/61/27 76/89/27 37/53/27
f 8/34/8 38/44/8 40/48/8
f 12/63/8 39/6/8 38/44/8
f 15/25/8 40/48/8 33/57/8
f 21/8/6 35/27/6 34/15/6
f 19/45/6 34/15/6 36/17/6
f 62/64/16 48/43/16 46/65/16
f 60/56/16 46/65/16 49/66/16
f 59/14/5 45/13/5 47/1/5
f 68/59/9 42/82/9 4/68/9
f 55/2/7 41/88/7 6/70/7
f 67/69/9 4/68/9 43/72/9
f 51/71/7 6/70/7 44/42/7
f 56/33/17 42/82/17 50/75/17
f 29/76/16 5/37/16 52/77/16
f 9/32/7 51/71/7 58/74/7
f 13/78/7 55/2/7 51/71/7
f 16/22/7 58/74/7 52/77/7
f 56/33/28 64/4/28 39/6/28
f 33/79/29 63/67/29 54/80/29
f 42/82/9 56/33/9 53/24/9
f 4/68/9 53/24/9 57/26/9
f 7/83/9 67/69/9 78/73/9
f 11/85/9 68/59/9 67/69/9
f 18/84/9 78/73/9 65/86/9
f 74/7/1 70/29/1 41/88/1
f 50/75/5 77/60/5 72/51/5
f 48/43/16 75/12/16 73/52/16
f 46/65/16 73/52/16 76/89/16
f 45/13/5 72/51/5 74/7/5
f 41/88/7 70/29/7 69/18/7
f 6/70/7 69/18/7 71/20/7
f 42/82/17 68/59/17 77/60/17
f 27/31/30 61/3/30 55/2/30
f 81/6/8 82/5/8 80/58/8
f 82/5/8 84/31/8 83/21/8
f 27/31/7 26/21/7 83/21/7
f 27/31/19 84/31/19 82/5/19
f 22/5/19 82/5/19 81/6/19
f 38/44/14 79/44/14 80/58/14
f 28/23/9 29/76/9 62/64/9
f 62/64/20 60/56/20 23/47/20
f 43/72/9 57/26/9 54/80/9
f 54/80/31 63/67/31 49/66/31
f 49/66/31 76/89/31 65/86/31
f 65/86/9 78/73/9 43/72/9
f 43/72/32 54/80/32 49/66/32
